# xmcd
#
# Track frame offsets:
#	182
#	14747
#	31552
#	52305
#	66212
#	80355
#	99042
#	119270
#	135287
#	149467
#	167385
#	183107
#	206915
#	225315
#	238882
#	256545
#	270955
#
# Disc length: 3793
#
# Revision: 2
# Processed by: cddbd v1.5.1PL0 Copyright (c) Steve Scherf et al.
# Submitted via: CDex 1.50
# Normalized: r1:TRMNUM
#
DISCID=d50ecf11
DTITLE=Leonardo - O Analista De Perto De Bagé
DYEAR=1900
DGENRE=Country
TTITLE0=O Analista De Perto De Bagé
TTITLE1=O Maior Dos Tios
TTITLE2=Reconhecimento
TTITLE3=Casinha Tosca
TTITLE4=Xote Nativo
TTITLE5=É Isso Que A Gente Gosta
TTITLE6=Batismo De Sal
TTITLE7=O Ligeira
TTITLE8=Festa Do PinhãO
TTITLE9=Liberdade Para Morrer
TTITLE10=GaudéRio Aprendiz
TTITLE11=Aos Desgarrados Do Pago
TTITLE12=Canto EsperançA
TTITLE13=Rancheira Do Namoro
TTITLE14=Vida
TTITLE15=Prosa
TTITLE16=Bugiu Macho
EXTD=
EXTT0=
EXTT1=
EXTT2=
EXTT3=
EXTT4=
EXTT5=
EXTT6=
EXTT7=
EXTT8=
EXTT9=
EXTT10=
EXTT11=
EXTT12=
EXTT13=
EXTT14=
EXTT15=
EXTT16=
PLAYORDER=
